<?xml version="1.0" standalone="no"?>
<!DOCTYPE svg PUBLIC "-//W3C//DTD SVG 20010904//EN"
 "http://www.w3.org/TR/2001/REC-SVG-20010904/DTD/svg10.dtd">
<svg version="1.0" xmlns="http://www.w3.org/2000/svg"
 width="256.000000pt" height="220.000000pt" viewBox="0 0 256.000000 220.000000"
 preserveAspectRatio="xMidYMid meet">
<metadata>
Created by potrace 1.11, written by Peter Selinger 2001-2013
</metadata>
<g transform="translate(0.000000,220.000000) scale(0.100000,-0.100000)"
fill="#000000" stroke="none">
<path d="M2452 2188 c-7 -7 -12 -15 -12 -19 0 -23 -143 -344 -171 -385 -19
-27 -52 -84 -75 -127 l-41 -79 -32 51 c-18 28 -37 51 -43 51 -5 0 -6 -4 -3
-10 3 -5 0 -10 -7 -10 -7 0 -1 -8 15 -18 15 -10 24 -21 21 -25 -4 -4 1 -9 10
-13 9 -3 13 -10 10 -15 -3 -5 2 -12 10 -15 9 -3 14 -10 11 -14 -3 -5 -1 -11 5
-15 5 -3 28 30 50 75 22 44 37 80 33 80 -5 0 0 5 10 11 9 6 15 14 12 19 -3 4
2 11 11 14 8 3 13 10 10 15 -3 5 1 12 10 15 8 3 12 10 9 16 -3 5 -1 10 5 10 6
0 8 5 5 10 -3 6 -1 10 5 10 6 0 8 5 5 10 -3 6 -1 10 5 10 6 0 8 5 5 10 -3 6
-1 10 5 10 6 0 8 5 5 10 -3 6 -2 10 4 10 6 0 7 7 4 17 -4 10 -2 14 4 10 13 -8
44 59 36 79 -4 12 -3 15 5 10 8 -5 10 -1 5 10 -4 11 -3 15 4 11 7 -5 9 1 6 15
-3 16 -2 19 4 10 7 -9 12 -6 21 13 17 36 14 45 -4 15 l-15 -25 7 25 c3 14 17
47 30 75 24 51 26 63 6 43z"/>
<path d="M2498 1802 c-73 -60 -117 -120 -167 -222 -39 -78 -135 -223 -170
-254 -9 -8 -46 -17 -82 -21 l-66 -7 -40 72 -40 71 -80 -65 c-60 -49 -88 -66
-111 -66 -27 0 -34 -7 -66 -64 -34 -60 -39 -65 -74 -68 -34 -3 -39 -7 -69 -65
-17 -34 -33 -68 -36 -75 -3 -9 -16 -3 -43 18 -39 31 -41 31 -76 17 -33 -13
-39 -13 -75 6 l-39 20 -36 -80 c-20 -43 -42 -81 -50 -83 -7 -2 -24 -7 -38 -10
-18 -4 -35 -23 -58 -66 -18 -33 -35 -60 -38 -60 -2 0 -36 33 -74 73 l-70 72
-36 -42 -36 -43 -36 47 -35 46 -19 -23 c-10 -13 -46 -80 -80 -150 -61 -124
-63 -128 -132 -177 -39 -28 -86 -53 -104 -55 -36 -5 -33 -8 -96 95 l-17 28
-47 -44 c-26 -24 -60 -52 -74 -61 -27 -18 -28 -18 -70 16 -55 44 -94 68 -110
68 -6 0 10 -14 38 -31 27 -17 63 -44 79 -60 l31 -29 39 26 c22 15 56 42 77 61
l36 35 34 -61 33 -62 43 6 c39 6 78 28 168 95 11 8 48 71 81 140 86 176 81
172 125 116 l36 -47 36 43 37 43 74 -78 74 -77 37 69 c33 61 42 71 73 78 33 7
40 15 74 86 l37 77 38 -19 c33 -17 41 -17 62 -5 38 21 53 17 90 -21 l35 -36
36 80 c36 78 38 80 75 83 36 3 41 8 77 71 34 60 42 67 69 67 29 0 39 6 160
108 14 12 20 7 53 -52 l37 -66 56 1 c32 1 68 4 82 8 35 9 128 135 191 256 66
127 111 186 177 236 28 22 52 44 52 49 0 13 2 15 -62 -38z"/>
<path d="M1863 1753 c-32 -38 -84 -92 -115 -121 -31 -30 -69 -71 -84 -93 -22
-32 -33 -39 -59 -39 -40 0 -46 -7 -80 -92 -15 -38 -30 -68 -34 -68 -3 0 -22
30 -41 67 -31 60 -39 68 -70 75 -23 4 -47 20 -73 49 -20 23 -39 40 -41 38 -2
-2 -21 -44 -41 -93 -20 -49 -54 -112 -75 -140 -21 -28 -53 -78 -71 -110 l-33
-60 -37 80 c-33 73 -40 81 -74 91 -36 11 -40 10 -73 -18 l-35 -31 -37 43 -37
43 -18 -49 c-46 -127 -110 -284 -130 -325 -27 -52 -143 -210 -154 -210 -4 0
-22 5 -38 11 -25 8 -37 24 -63 85 -18 41 -37 77 -42 80 -4 3 -40 -9 -79 -27
l-70 -33 -37 44 -38 43 -42 -22 c-23 -12 -42 -25 -42 -30 0 -5 18 0 40 12 l41
22 38 -41 c30 -32 43 -39 55 -32 9 5 42 20 72 34 l54 24 38 -78 c42 -87 43
-88 89 -97 28 -5 37 -2 58 22 90 102 163 239 235 441 l33 93 39 -38 39 -38 20
25 c11 13 26 25 34 26 7 1 23 5 36 9 13 4 20 4 16 -1 -4 -4 2 -13 14 -19 12
-7 38 -47 58 -91 l37 -78 36 64 c20 36 55 89 77 119 22 29 54 88 72 130 17 42
33 78 35 80 2 3 17 -8 33 -23 16 -15 31 -27 33 -26 4 2 56 -9 78 -17 12 -4 11
-7 -5 -13 -19 -8 -19 -9 3 -9 13 -1 20 -5 17 -11 -3 -5 -1 -10 5 -10 6 0 8 -4
5 -10 -3 -5 -1 -10 5 -10 6 0 8 -4 5 -10 -3 -5 -1 -10 5 -10 6 0 8 -4 5 -10
-3 -5 -1 -10 5 -10 6 0 8 -4 5 -10 -3 -5 -1 -10 5 -10 6 0 8 -4 5 -10 -3 -5
-1 -10 5 -10 6 0 9 -4 5 -9 -3 -5 -1 -12 4 -15 8 -5 27 30 33 64 2 8 9 21 16
29 7 7 11 20 8 27 -3 8 -1 14 5 14 6 0 7 5 4 10 -3 6 -2 10 3 10 6 0 9 8 8 18
-1 13 8 18 36 20 29 2 44 12 71 45 51 63 256 272 260 266 7 -8 27 -48 27 -54
0 -3 -5 -3 -11 1 -8 4 -8 0 0 -15 14 -25 22 -28 15 -3 -5 14 -3 14 10 -2 18
-23 21 -40 5 -30 -8 4 -8 0 0 -15 14 -25 23 -28 14 -4 -5 12 -3 14 7 8 7 -4
-4 24 -26 63 -21 40 -41 72 -45 72 -4 0 -34 -30 -66 -67z"/>
</g>
</svg>
