<?xml version="1.0" standalone="no"?>
<!DOCTYPE svg PUBLIC "-//W3C//DTD SVG 20010904//EN"
 "http://www.w3.org/TR/2001/REC-SVG-20010904/DTD/svg10.dtd">
<svg version="1.0" xmlns="http://www.w3.org/2000/svg"
 width="383.000000pt" height="387.000000pt" viewBox="0 0 383.000000 387.000000"
 preserveAspectRatio="xMidYMid meet">
<metadata>
Created by potrace 1.11, written by Peter Selinger 2001-2013
</metadata>
<g transform="translate(0.000000,387.000000) scale(0.100000,-0.100000)"
fill="#000000" stroke="none">
<path d="M1940 2725 c1 -574 3 -736 12 -720 7 11 166 304 355 650 l342 630
-77 37 c-151 74 -347 125 -524 136 l-108 7 0 -740z"/>
<path d="M1685 3449 c-63 -12 -219 -50 -224 -55 -2 -2 96 -310 220 -683 123
-374 225 -679 226 -677 2 2 -24 316 -57 699 -33 383 -60 703 -60 712 0 17 -26
18 -105 4z"/>
</g>
</svg>
